<?xml version="1.0" encoding="UTF-8" standalone="no"?>
<!-- Created with Inkscape (http://www.inkscape.org/) -->

<svg
   xmlns:dc="http://purl.org/dc/elements/1.1/"
   xmlns:cc="http://creativecommons.org/ns#"
   xmlns:rdf="http://www.w3.org/1999/02/22-rdf-syntax-ns#"
   xmlns:svg="http://www.w3.org/2000/svg"
   xmlns="http://www.w3.org/2000/svg"
   xmlns:sodipodi="http://sodipodi.sourceforge.net/DTD/sodipodi-0.dtd"
   xmlns:inkscape="http://www.inkscape.org/namespaces/inkscape"
   version="1.1"
   id="svg2"
   xml:space="preserve"
   width="260"
   height="260"
   viewBox="0 0 260 260"
   sodipodi:docname="Logo-RedHat.svg"
   inkscape:version="0.92.3 (2405546, 2018-03-11)"><metadata
     id="metadata8"><rdf:RDF><cc:Work
         rdf:about=""><dc:format>image/svg+xml</dc:format><dc:type
           rdf:resource="http://purl.org/dc/dcmitype/StillImage" /><dc:title></dc:title></cc:Work></rdf:RDF></metadata><defs
     id="defs6" /><sodipodi:namedview
     pagecolor="#ffffff"
     bordercolor="#666666"
     borderopacity="1"
     objecttolerance="10"
     gridtolerance="10"
     guidetolerance="10"
     inkscape:pageopacity="0"
     inkscape:pageshadow="2"
     inkscape:window-width="2014"
     inkscape:window-height="1216"
     id="namedview4"
     showgrid="false"
     inkscape:zoom="0.55301796"
     inkscape:cx="408.66666"
     inkscape:cy="96.666664"
     inkscape:window-x="0"
     inkscape:window-y="70"
     inkscape:window-maximized="0"
     inkscape:current-layer="g10" /><g
     id="g10"
     inkscape:groupmode="layer"
     inkscape:label="ink_ext_XXXXXX"
     transform="matrix(1.3333333,0,0,-1.3333333,0,260.00001)"><path
       inkscape:connector-curvature="0"
       id="path14"
       style="fill:#ed1c33;fill-opacity:1;fill-rule:nonzero;stroke:none;stroke-width:0.1"
       d="m 161.848,97.93131 c 1.726,-8.1915 1.726,-9.054 1.726,-10.1317 0,-14.0129 -15.739,-21.7726 -36.432,-21.7726 -46.781098,0 -87.737698,27.3769 -87.737698,45.4851 0,2.8043 0.6465,5.3895 1.5086,7.3293 -16.8152,-0.8625 -38.5878996,-3.8797 -38.5878996,-23.0656 0,-31.4727 74.5890996,-70.2758 133.6539976,-70.2758 45.272,0 56.696,20.4781 56.696,36.6461 0,12.7207 -10.994,27.1609 -30.827,35.7852 m -32.551,-11.4258 c 12.505,0 30.612,2.5879 30.612,17.4617 0,1.1605 -0.033,2.2902 -0.311,3.4223 l -7.449,32.3625 c -1.726,7.113 -3.234,10.348 -15.737,16.6 -9.701,4.957 -30.827,13.148 -37.079198,13.148 -5.8203,0 -7.543,-7.543 -14.4433,-7.543 -6.6805,0 -11.6399,5.603 -17.8915,5.603 -6.0343,0 -9.9171,-4.095 -12.9335,-12.503 0,0 -8.4082,-23.712 -9.4868,-27.159 -0.2156,-0.648 -0.2214,-1.375 -0.2214,-1.943 0,-9.2155 36.2941,-39.4495 84.940698,-39.4495" /></g></svg>
